{
	"asset":{
		"generator":"Khronos glTF Blender I/O v4.2.70",
		"version":"2.0"
	},
	"scene":0,
	"scenes":[
		{
			"name":"Scene",
			"nodes":[
				0,
				1,
				2,
				3,
				4,
				5,
				6,
				7,
				8,
				9,
				10,
				11
			]
		}
	],
	"nodes":[
		{
			"mesh":0,
			"name":"Room "
		},
		{
			"mesh":1,
			"name":"Bed",
			"scale":[
				2.734154224395752,
				1,
				1
			],
			"translation":[
				2.1356239318847656,
				0.17232656478881836,
				-1.242226481437683
			]
		},
		{
			"mesh":2,
			"name":"Desk",
			"scale":[
				1.9534780979156494,
				1.1398898363113403,
				1
			],
			"translation":[
				3.426248788833618,
				0.17232656478881836,
				-1.2795542478561401
			]
		},
		{
			"mesh":3,
			"name":"Lamp",
			"translation":[
				-2.864331007003784,
				0.17232656478881836,
				2.9915523529052734
			]
		},
		{
			"mesh":4,
			"name":"Chair",
			"rotation":[
				0,
				-1,
				0,
				1.6292068494294654e-07
			],
			"scale":[
				0.6532679796218872,
				1.3440457582473755,
				0.6532679796218872
			],
			"translation":[
				4.832981586456299,
				0.17232632637023926,
				-1.322589635848999
			]
		},
		{
			"mesh":5,
			"name":"Picture_1",
			"scale":[
				0.2932351529598236,
				0.4581494927406311,
				0.03746672719717026
			],
			"translation":[
				4.834500789642334,
				2.7956252098083496,
				-3.2463934421539307
			]
		},
		{
			"mesh":6,
			"name":"Picture_2",
			"scale":[
				0.6175228357315063,
				0.7971310019493103,
				0.07279536128044128
			],
			"translation":[
				6.2505717277526855,
				4.38988733291626,
				-3.288414239883423
			]
		},
		{
			"mesh":7,
			"name":"Picture_3",
			"scale":[
				0.2932351529598236,
				0.270382821559906,
				0.03746672719717026
			],
			"translation":[
				4.8436598777771,
				4.38988733291626,
				-3.288414239883423
			]
		},
		{
			"mesh":8,
			"name":"Carpet",
			"scale":[
				1.8477821350097656,
				0.018860889598727226,
				1.0598077774047852
			],
			"translation":[
				1.813827633857727,
				0.17232656478881836,
				1.4971147775650024
			]
		},
		{
			"mesh":9,
			"name":"Book_1",
			"scale":[
				0.06778991967439651,
				0.27703002095222473,
				0.19464686512947083
			],
			"translation":[
				3.900298595428467,
				1.9108716249465942,
				-3.181199073791504
			]
		},
		{
			"mesh":10,
			"name":"Book_2",
			"scale":[
				0.05668787285685539,
				0.30764245986938477,
				0.2161557823419571
			],
			"translation":[
				4.043445110321045,
				1.9108716249465942,
				-3.179501533508301
			]
		},
		{
			"mesh":11,
			"name":"Book_3",
			"scale":[
				0.09164874255657196,
				0.3531452715396881,
				0.24812693893909454
			],
			"translation":[
				4.244487285614014,
				1.9108716249465942,
				-3.257005453109741
			]
		}
	],
	"materials":[
		{
			"doubleSided":true,
			"name":"Material",
			"pbrMetallicRoughness":{
				"baseColorFactor":[
					0.800000011920929,
					0.800000011920929,
					0.800000011920929,
					1
				],
				"metallicFactor":0,
				"roughnessFactor":0.5
			}
		}
	],
	"meshes":[
		{
			"name":"Cube",
			"primitives":[
				{
					"attributes":{
						"POSITION":0,
						"NORMAL":1,
						"TEXCOORD_0":2
					},
					"indices":3,
					"material":0
				}
			]
		},
		{
			"name":"Cube.001",
			"primitives":[
				{
					"attributes":{
						"POSITION":4,
						"NORMAL":5,
						"TEXCOORD_0":6
					},
					"indices":7
				}
			]
		},
		{
			"name":"Cube.002",
			"primitives":[
				{
					"attributes":{
						"POSITION":8,
						"NORMAL":9,
						"TEXCOORD_0":10
					},
					"indices":11
				}
			]
		},
		{
			"name":"Cube.003",
			"primitives":[
				{
					"attributes":{
						"POSITION":12,
						"NORMAL":13,
						"TEXCOORD_0":14
					},
					"indices":15
				}
			]
		},
		{
			"name":"Cube.004",
			"primitives":[
				{
					"attributes":{
						"POSITION":16,
						"NORMAL":17,
						"TEXCOORD_0":18
					},
					"indices":19
				}
			]
		},
		{
			"name":"Cube.005",
			"primitives":[
				{
					"attributes":{
						"POSITION":20,
						"NORMAL":21,
						"TEXCOORD_0":22
					},
					"indices":23
				}
			]
		},
		{
			"name":"Cube.006",
			"primitives":[
				{
					"attributes":{
						"POSITION":24,
						"NORMAL":25,
						"TEXCOORD_0":26
					},
					"indices":23
				}
			]
		},
		{
			"name":"Cube.007",
			"primitives":[
				{
					"attributes":{
						"POSITION":27,
						"NORMAL":28,
						"TEXCOORD_0":29
					},
					"indices":23
				}
			]
		},
		{
			"name":"Cube.008",
			"primitives":[
				{
					"attributes":{
						"POSITION":30,
						"NORMAL":31,
						"TEXCOORD_0":32
					},
					"indices":33
				}
			]
		},
		{
			"name":"Cube.009",
			"primitives":[
				{
					"attributes":{
						"POSITION":34,
						"NORMAL":35,
						"TEXCOORD_0":36
					},
					"indices":33
				}
			]
		},
		{
			"name":"Cube.010",
			"primitives":[
				{
					"attributes":{
						"POSITION":37,
						"NORMAL":38,
						"TEXCOORD_0":39
					},
					"indices":33
				}
			]
		},
		{
			"name":"Cube.011",
			"primitives":[
				{
					"attributes":{
						"POSITION":40,
						"NORMAL":41,
						"TEXCOORD_0":42
					},
					"indices":33
				}
			]
		}
	],
	"accessors":[
		{
			"bufferView":0,
			"componentType":5126,
			"count":281,
			"max":[
				7.611367225646973,
				5.552541255950928,
				3.690363883972168
			],
			"min":[
				-3.690363883972168,
				-0.17232656478881836,
				-3.690363883972168
			],
			"type":"VEC3"
		},
		{
			"bufferView":1,
			"componentType":5126,
			"count":281,
			"type":"VEC3"
		},
		{
			"bufferView":2,
			"componentType":5126,
			"count":281,
			"type":"VEC2"
		},
		{
			"bufferView":3,
			"componentType":5123,
			"count":828,
			"type":"SCALAR"
		},
		{
			"bufferView":4,
			"componentType":5126,
			"count":76,
			"max":[
				0.10000008344650269,
				2,
				5.960464477539063e-08
			],
			"min":[
				-1.8999998569488525,
				0,
				-2
			],
			"type":"VEC3"
		},
		{
			"bufferView":5,
			"componentType":5126,
			"count":76,
			"type":"VEC3"
		},
		{
			"bufferView":6,
			"componentType":5126,
			"count":76,
			"type":"VEC2"
		},
		{
			"bufferView":7,
			"componentType":5123,
			"count":120,
			"type":"SCALAR"
		},
		{
			"bufferView":8,
			"componentType":5126,
			"count":58,
			"max":[
				1.7570526599884033,
				1.5251867771148682,
				5.960464477539063e-08
			],
			"min":[
				-0.0767861157655716,
				0,
				-1.999999761581421
			],
			"type":"VEC3"
		},
		{
			"bufferView":9,
			"componentType":5126,
			"count":58,
			"type":"VEC3"
		},
		{
			"bufferView":10,
			"componentType":5126,
			"count":58,
			"type":"VEC2"
		},
		{
			"bufferView":11,
			"componentType":5123,
			"count":96,
			"type":"SCALAR"
		},
		{
			"bufferView":12,
			"componentType":5126,
			"count":237,
			"max":[
				0.8588579297065735,
				4.235258102416992,
				0.14493274688720703
			],
			"min":[
				-0.14493483304977417,
				7.450580596923828e-09,
				-0.8588601350784302
			],
			"type":"VEC3"
		},
		{
			"bufferView":13,
			"componentType":5126,
			"count":237,
			"type":"VEC3"
		},
		{
			"bufferView":14,
			"componentType":5126,
			"count":237,
			"type":"VEC2"
		},
		{
			"bufferView":15,
			"componentType":5123,
			"count":522,
			"type":"SCALAR"
		},
		{
			"bufferView":16,
			"componentType":5126,
			"count":218,
			"max":[
				-1.7881393432617188e-07,
				1.652983546257019,
				1.1920928955078125e-07
			],
			"min":[
				-1.3463919162750244,
				1.4901161193847656e-07,
				-1.3463916778564453
			],
			"type":"VEC3"
		},
		{
			"bufferView":17,
			"componentType":5126,
			"count":218,
			"type":"VEC3"
		},
		{
			"bufferView":18,
			"componentType":5126,
			"count":218,
			"type":"VEC2"
		},
		{
			"bufferView":19,
			"componentType":5123,
			"count":486,
			"type":"SCALAR"
		},
		{
			"bufferView":20,
			"componentType":5126,
			"count":48,
			"max":[
				-9.5367431640625e-07,
				2,
				-7.62939453125e-06
			],
			"min":[
				-2.0000009536743164,
				0,
				-2.0000076293945312
			],
			"type":"VEC3"
		},
		{
			"bufferView":21,
			"componentType":5126,
			"count":48,
			"type":"VEC3"
		},
		{
			"bufferView":22,
			"componentType":5126,
			"count":48,
			"type":"VEC2"
		},
		{
			"bufferView":23,
			"componentType":5123,
			"count":84,
			"type":"SCALAR"
		},
		{
			"bufferView":24,
			"componentType":5126,
			"count":48,
			"max":[
				9.5367431640625e-07,
				0,
				2
			],
			"min":[
				-1.9999990463256836,
				-2,
				0
			],
			"type":"VEC3"
		},
		{
			"bufferView":25,
			"componentType":5126,
			"count":48,
			"type":"VEC3"
		},
		{
			"bufferView":26,
			"componentType":5126,
			"count":48,
			"type":"VEC2"
		},
		{
			"bufferView":27,
			"componentType":5126,
			"count":48,
			"max":[
				9.5367431640625e-07,
				0,
				2
			],
			"min":[
				-1.9999990463256836,
				-2,
				0
			],
			"type":"VEC3"
		},
		{
			"bufferView":28,
			"componentType":5126,
			"count":48,
			"type":"VEC3"
		},
		{
			"bufferView":29,
			"componentType":5126,
			"count":48,
			"type":"VEC2"
		},
		{
			"bufferView":30,
			"componentType":5126,
			"count":24,
			"max":[
				1.1920928955078125e-07,
				2,
				5.960464477539063e-08
			],
			"min":[
				-1.9999998807907104,
				0,
				-2
			],
			"type":"VEC3"
		},
		{
			"bufferView":31,
			"componentType":5126,
			"count":24,
			"type":"VEC3"
		},
		{
			"bufferView":32,
			"componentType":5126,
			"count":24,
			"type":"VEC2"
		},
		{
			"bufferView":33,
			"componentType":5123,
			"count":36,
			"type":"SCALAR"
		},
		{
			"bufferView":34,
			"componentType":5126,
			"count":24,
			"max":[
				0,
				1.9999995231628418,
				2.0000009536743164
			],
			"min":[
				-2,
				-4.76837158203125e-07,
				9.5367431640625e-07
			],
			"type":"VEC3"
		},
		{
			"bufferView":35,
			"componentType":5126,
			"count":24,
			"type":"VEC3"
		},
		{
			"bufferView":36,
			"componentType":5126,
			"count":24,
			"type":"VEC2"
		},
		{
			"bufferView":37,
			"componentType":5126,
			"count":24,
			"max":[
				0,
				1.9999995231628418,
				2.0000009536743164
			],
			"min":[
				-2,
				-4.76837158203125e-07,
				9.5367431640625e-07
			],
			"type":"VEC3"
		},
		{
			"bufferView":38,
			"componentType":5126,
			"count":24,
			"type":"VEC3"
		},
		{
			"bufferView":39,
			"componentType":5126,
			"count":24,
			"type":"VEC2"
		},
		{
			"bufferView":40,
			"componentType":5126,
			"count":24,
			"max":[
				0,
				1.9999995231628418,
				2.0000009536743164
			],
			"min":[
				-2,
				-4.76837158203125e-07,
				9.5367431640625e-07
			],
			"type":"VEC3"
		},
		{
			"bufferView":41,
			"componentType":5126,
			"count":24,
			"type":"VEC3"
		},
		{
			"bufferView":42,
			"componentType":5126,
			"count":24,
			"type":"VEC2"
		}
	],
	"bufferViews":[
		{
			"buffer":0,
			"byteLength":3372,
			"byteOffset":0,
			"target":34962
		},
		{
			"buffer":0,
			"byteLength":3372,
			"byteOffset":3372,
			"target":34962
		},
		{
			"buffer":0,
			"byteLength":2248,
			"byteOffset":6744,
			"target":34962
		},
		{
			"buffer":0,
			"byteLength":1656,
			"byteOffset":8992,
			"target":34963
		},
		{
			"buffer":0,
			"byteLength":912,
			"byteOffset":10648,
			"target":34962
		},
		{
			"buffer":0,
			"byteLength":912,
			"byteOffset":11560,
			"target":34962
		},
		{
			"buffer":0,
			"byteLength":608,
			"byteOffset":12472,
			"target":34962
		},
		{
			"buffer":0,
			"byteLength":240,
			"byteOffset":13080,
			"target":34963
		},
		{
			"buffer":0,
			"byteLength":696,
			"byteOffset":13320,
			"target":34962
		},
		{
			"buffer":0,
			"byteLength":696,
			"byteOffset":14016,
			"target":34962
		},
		{
			"buffer":0,
			"byteLength":464,
			"byteOffset":14712,
			"target":34962
		},
		{
			"buffer":0,
			"byteLength":192,
			"byteOffset":15176,
			"target":34963
		},
		{
			"buffer":0,
			"byteLength":2844,
			"byteOffset":15368,
			"target":34962
		},
		{
			"buffer":0,
			"byteLength":2844,
			"byteOffset":18212,
			"target":34962
		},
		{
			"buffer":0,
			"byteLength":1896,
			"byteOffset":21056,
			"target":34962
		},
		{
			"buffer":0,
			"byteLength":1044,
			"byteOffset":22952,
			"target":34963
		},
		{
			"buffer":0,
			"byteLength":2616,
			"byteOffset":23996,
			"target":34962
		},
		{
			"buffer":0,
			"byteLength":2616,
			"byteOffset":26612,
			"target":34962
		},
		{
			"buffer":0,
			"byteLength":1744,
			"byteOffset":29228,
			"target":34962
		},
		{
			"buffer":0,
			"byteLength":972,
			"byteOffset":30972,
			"target":34963
		},
		{
			"buffer":0,
			"byteLength":576,
			"byteOffset":31944,
			"target":34962
		},
		{
			"buffer":0,
			"byteLength":576,
			"byteOffset":32520,
			"target":34962
		},
		{
			"buffer":0,
			"byteLength":384,
			"byteOffset":33096,
			"target":34962
		},
		{
			"buffer":0,
			"byteLength":168,
			"byteOffset":33480,
			"target":34963
		},
		{
			"buffer":0,
			"byteLength":576,
			"byteOffset":33648,
			"target":34962
		},
		{
			"buffer":0,
			"byteLength":576,
			"byteOffset":34224,
			"target":34962
		},
		{
			"buffer":0,
			"byteLength":384,
			"byteOffset":34800,
			"target":34962
		},
		{
			"buffer":0,
			"byteLength":576,
			"byteOffset":35184,
			"target":34962
		},
		{
			"buffer":0,
			"byteLength":576,
			"byteOffset":35760,
			"target":34962
		},
		{
			"buffer":0,
			"byteLength":384,
			"byteOffset":36336,
			"target":34962
		},
		{
			"buffer":0,
			"byteLength":288,
			"byteOffset":36720,
			"target":34962
		},
		{
			"buffer":0,
			"byteLength":288,
			"byteOffset":37008,
			"target":34962
		},
		{
			"buffer":0,
			"byteLength":192,
			"byteOffset":37296,
			"target":34962
		},
		{
			"buffer":0,
			"byteLength":72,
			"byteOffset":37488,
			"target":34963
		},
		{
			"buffer":0,
			"byteLength":288,
			"byteOffset":37560,
			"target":34962
		},
		{
			"buffer":0,
			"byteLength":288,
			"byteOffset":37848,
			"target":34962
		},
		{
			"buffer":0,
			"byteLength":192,
			"byteOffset":38136,
			"target":34962
		},
		{
			"buffer":0,
			"byteLength":288,
			"byteOffset":38328,
			"target":34962
		},
		{
			"buffer":0,
			"byteLength":288,
			"byteOffset":38616,
			"target":34962
		},
		{
			"buffer":0,
			"byteLength":192,
			"byteOffset":38904,
			"target":34962
		},
		{
			"buffer":0,
			"byteLength":288,
			"byteOffset":39096,
			"target":34962
		},
		{
			"buffer":0,
			"byteLength":288,
			"byteOffset":39384,
			"target":34962
		},
		{
			"buffer":0,
			"byteLength":192,
			"byteOffset":39672,
			"target":34962
		}
	],
	"buffers":[
		{
			"byteLength":39864,
			"uri":"blender_room.bin"
		}
	]
}
